<?xml version="1.0" encoding="iso-8859-1"?>
<!-- Generator: Adobe Illustrator 18.0.0, SVG Export Plug-In . SVG Version: 6.00 Build 0)  -->
<!DOCTYPE svg PUBLIC "-//W3C//DTD SVG 1.1//EN" "http://www.w3.org/Graphics/SVG/1.1/DTD/svg11.dtd">
<svg version="1.1" id="Capa_1" xmlns="http://www.w3.org/2000/svg" xmlns:xlink="http://www.w3.org/1999/xlink" x="0px" y="0px"
	 viewBox="0 0 372.48 372.48" style="enable-background:new 0 0 372.48 372.48;" xml:space="preserve">
<g>
	<path d="M248.317,220.906h25.043c15.522,0,25.163-8.176,25.163-21.337c0-6.42-2.336-11.819-6.64-15.496
		c2.498-3.293,3.804-7.492,3.804-12.311c0-12.264-8.764-20.188-22.327-20.188h-25.043c-1.381,0-2.5,1.119-2.5,2.5v64.332
		C245.817,219.787,246.936,220.906,248.317,220.906z M257.817,163.574h15.543c9.257,0,10.327,4.673,10.327,8.188
		c0,5.431-2.94,6.796-5.268,7.302h-20.603V163.574z M257.817,191.064h20.949c6.949,1.032,7.757,5.342,7.757,8.505
		c0,2.31,0,9.337-13.163,9.337h-15.543V191.064z"/>
	<path d="M104.563,219.94c13.428,0,21.77-8.001,21.77-20.881v-44.02c0-1.381-1.119-2.5-2.5-2.5H89.69c-1.382,0-2.5,1.119-2.5,2.5v7
		c0,1.381,1.118,2.5,2.5,2.5h24.643v34.52c0,6.225-2.922,8.881-9.77,8.881c-4.768,0-8.922-1.938-12.013-5.603
		c-0.428-0.507-1.039-0.823-1.699-0.88c-0.67-0.053-1.317,0.152-1.823,0.58l-5.352,4.513c-0.507,0.427-0.823,1.039-0.88,1.699
		c-0.056,0.661,0.152,1.317,0.58,1.824C88.743,216.436,96.268,219.94,104.563,219.94z"/>
	<path d="M190.263,220.906c8.304,0,16.322-3.226,22.578-9.085c0.483-0.453,0.767-1.08,0.79-1.743
		c0.021-0.663-0.221-1.307-0.674-1.791l-4.785-5.109c-0.454-0.484-1.082-0.768-1.743-0.79c-0.664-0.022-1.308,0.221-1.791,0.674
		c-4.023,3.768-9.128,5.843-14.375,5.843c-11.867,0-21.521-10.186-21.521-22.706c0-12.476,9.654-22.626,21.521-22.626
		c5.253,0,10.329,2.046,14.296,5.76c1.01,0.945,2.593,0.892,3.535-0.116l4.785-5.109c0.453-0.484,0.695-1.128,0.674-1.791
		c-0.023-0.663-0.307-1.29-0.79-1.743c-6.199-5.805-14.19-9.001-22.5-9.001c-18.483,0-33.521,15.533-33.521,34.626
		C156.741,205.337,171.779,220.906,190.263,220.906z"/>
	<path d="M357.48,71.246H15c-8.271,0-15,6.729-15,15v199.988c0,8.271,6.728,15,15,15h342.48c8.271,0,15-6.729,15-15V86.246
		C372.48,77.975,365.752,71.246,357.48,71.246z M137.908,140.574v91.332c0,5.393-3.954,9.78-8.814,9.78H71.24V140.574
		c0-5.393,3.954-9.78,8.814-9.78h57.854V140.574z M224.572,140.574v91.332c0,5.393-3.954,9.78-8.814,9.78h-67.85v-9.78v-91.332
		c0-5.393,3.954-9.78,8.814-9.78h67.85V140.574z M307.74,231.906c0,5.393-3.954,9.78-8.815,9.78h-64.353v-9.78v-91.332
		c0-5.393,3.953-9.78,8.814-9.78h64.354V231.906z"/>
</g>
<g>
</g>
<g>
</g>
<g>
</g>
<g>
</g>
<g>
</g>
<g>
</g>
<g>
</g>
<g>
</g>
<g>
</g>
<g>
</g>
<g>
</g>
<g>
</g>
<g>
</g>
<g>
</g>
<g>
</g>
</svg>
