<svg width="20" height="20" viewBox="0 0 20 20" fill="none" xmlns="http://www.w3.org/2000/svg">
<path fill-rule="evenodd" clip-rule="evenodd" d="M15.9659 4.7067L13.2719 2.0127L11.3239 3.9617L14.0189 6.6567L15.9659 4.7067ZM3.09087 15.9737C3.06087 15.9767 3.03087 15.9777 3.00087 15.9777C2.73687 15.9777 2.48187 15.8737 2.29287 15.6847C2.08387 15.4747 1.97787 15.1827 2.00387 14.8877L2.38287 10.7177C2.42487 10.2607 2.62687 9.8287 2.95287 9.5037L11.9489 0.507702C12.6509 -0.197298 13.9239 -0.162298 14.6649 0.576702L17.4029 3.3147L17.4039 3.3157C18.1689 4.0817 18.1999 5.2997 17.4719 6.0297L8.47487 15.0267C8.14987 15.3517 7.71887 15.5537 7.26087 15.5957L3.09087 15.9737ZM3.00037 17.978H17.0004C17.5504 17.978 18.0004 18.428 18.0004 18.978C18.0004 19.528 17.5504 19.978 17.0004 19.978H3.00037C2.45037 19.978 2.00037 19.528 2.00037 18.978C2.00037 18.428 2.45037 17.978 3.00037 17.978Z" fill="#3681B8"/>
</svg>
