<svg width="20" height="20" viewBox="0 0 20 20" fill="none" xmlns="http://www.w3.org/2000/svg">
<path fill-rule="evenodd" clip-rule="evenodd" d="M19.2256 11.5844C18.6411 11.3989 18.0167 11.7222 17.83 12.3067C16.7889 15.58 13.7244 17.7778 10.2044 17.7778C5.80222 17.7778 2.22222 14.2889 2.22222 10C2.22222 5.71222 5.80222 2.22222 10.2044 2.22222C12.1244 2.22222 13.9356 2.89111 15.3656 4.07778L12.9589 3.68111C12.3478 3.57 11.7811 3.99111 11.6811 4.59556C11.5811 5.20111 11.9911 5.77333 12.5967 5.87222L17.3144 6.65222C17.3756 6.66222 17.4378 6.66667 17.4967 6.66667C17.6289 6.66667 17.7578 6.64333 17.8778 6.59889C17.9189 6.58333 17.9522 6.55444 17.9922 6.53333C18.0656 6.49556 18.1422 6.46222 18.2056 6.40889C18.2456 6.37667 18.2711 6.33 18.3056 6.29222C18.3578 6.23778 18.4133 6.18556 18.4522 6.11889C18.48 6.07111 18.4911 6.01444 18.5122 5.96111C18.5389 5.89556 18.5744 5.83444 18.5878 5.76222L19.4256 1.31778C19.5389 0.714444 19.1422 0.132222 18.5389 0.02C17.9378 -0.0888889 17.3544 0.303333 17.2411 0.905556L16.9389 2.50667C15.09 0.905556 12.72 0 10.2044 0C4.57778 0 0 4.48556 0 10C0 15.5144 4.57778 20 10.2044 20C14.6956 20 18.6111 17.1789 19.9478 12.98C20.1333 12.3956 19.81 11.7711 19.2256 11.5844" fill="#3681B8"/>
</svg>
