<svg width="20" height="20" viewBox="0 0 20 20" fill="none" xmlns="http://www.w3.org/2000/svg">
<path fill-rule="evenodd" clip-rule="evenodd" d="M4.70725 7.70675C4.31625 8.09775 3.68425 8.09775 3.29325 7.70675L0.29325 4.70675C-0.09775 4.31575 -0.09775 3.68375 0.29325 3.29275L3.29325 0.292751C3.48825 0.0977497 3.74425 -0.00024987 4.00025 -0.00024987C4.25625 -0.00024987 4.51225 0.0977497 4.70725 0.292751C5.09825 0.68375 5.09825 1.31575 4.70725 1.70675L3.41425 2.99975H15.4102C17.3902 2.99975 19.0002 4.58275 19.0002 6.52875V8.99975C19.0002 9.55275 18.5532 9.99975 18.0002 9.99975C17.4473 9.99975 17.0002 9.55275 17.0002 8.99975V6.52875C17.0002 5.68575 16.2873 4.99975 15.4102 4.99975L3.41425 4.99975L4.70725 6.29275C5.09825 6.68375 5.09825 7.31575 4.70725 7.70675ZM15.5861 16.9997H3.59005C1.61105 16.9997 5.00074e-05 15.4167 5.00074e-05 13.4707L5.00074e-05 10.9998C5.00074e-05 10.4468 0.44705 9.99975 1.00005 9.99975C1.55305 9.99975 2.00005 10.4468 2.00005 10.9998V13.4707C2.00005 14.3127 2.71305 14.9998 3.59005 14.9998H15.5861L14.293 13.7067C13.9031 13.3158 13.9031 12.6837 14.293 12.2927C14.4881 12.0977 14.7441 11.9998 15 11.9998C15.2561 11.9998 15.512 12.0977 15.707 12.2927L18.7071 15.2927C19.0981 15.6837 19.0981 16.3157 18.7071 16.7067L15.707 19.7067C15.317 20.0978 14.6841 20.0978 14.293 19.7067C13.9031 19.3157 13.9031 18.6838 14.293 18.2927L15.5861 16.9997Z" fill="#3681B8"/>
</svg>
