<svg width="20" height="20" viewBox="0 0 20 20" fill="none" xmlns="http://www.w3.org/2000/svg">
<path fill-rule="evenodd" clip-rule="evenodd" d="M19.6898 5.07354C19.3111 4.46065 18.6549 4.09539 17.9347 4.09539H4.7277L4.09108 1.76043C3.96829 1.3116 3.56073 1 3.09539 1H1.0318C0.461214 1 0 1.46225 0 2.0318C0 2.60135 0.461214 3.0636 1.0318 3.0636H2.3071L5.1951 13.6529C5.31788 14.1018 5.72545 14.4134 6.19079 14.4134H15.477C15.868 14.4134 16.225 14.1926 16.4004 13.8428L19.7806 7.08142C20.1025 6.43654 20.0685 5.68642 19.6898 5.07354ZM5.67489 16.477C4.82056 16.477 4.12719 17.1693 4.12719 18.0247C4.12719 18.88 4.82056 19.5724 5.67489 19.5724C6.52922 19.5724 7.22258 18.88 7.22258 18.0247C7.22258 17.1693 6.52922 16.477 5.67489 16.477ZM14.4452 18.0247C14.4452 17.1693 15.1385 16.477 15.9929 16.477C16.8472 16.477 17.5406 17.1693 17.5406 18.0247C17.5406 18.88 16.8472 19.5724 15.9929 19.5724C15.1385 19.5724 14.4452 18.88 14.4452 18.0247Z" fill="#3681B8"/>
</svg>
