<svg width="20" height="20" viewBox="0 0 20 20" fill="none" xmlns="http://www.w3.org/2000/svg">
<path fill-rule="evenodd" clip-rule="evenodd" d="M15.5614 19.955C15.4034 19.955 15.2444 19.918 15.0984 19.842L9.99938 17.178L4.90138 19.842C4.56338 20.017 4.15538 19.987 3.84938 19.763C3.54138 19.539 3.38838 19.16 3.45338 18.785L4.42438 13.157L0.304379 9.172C0.0303789 8.907 -0.0686211 8.509 0.0483789 8.145C0.165379 7.783 0.478379 7.518 0.856379 7.464L6.55638 6.636L9.10438 1.51C9.44238 0.83 10.5574 0.83 10.8954 1.51L13.4434 6.636L19.1434 7.464C19.5214 7.518 19.8344 7.783 19.9514 8.145C20.0684 8.509 19.9694 8.907 19.6954 9.172L15.5754 13.157L16.5464 18.785C16.6114 19.16 16.4574 19.539 16.1504 19.763C15.9764 19.891 15.7694 19.955 15.5614 19.955" fill="#3681B8"/>
</svg>
