<svg width="20" height="20" viewBox="0 0 20 20" fill="none" xmlns="http://www.w3.org/2000/svg">
<path fill-rule="evenodd" clip-rule="evenodd" d="M1.819 18.9873V13.6341H9.09094V19.9983H2.84119C2.27676 19.9983 1.819 19.545 1.819 18.9873ZM17.1591 19.9983H10.9094V13.6341H18.1813V18.9884C18.1813 19.5461 17.7235 19.9983 17.1591 19.9983ZM18.9993 4.54538H16.9527C17.1516 4.13095 17.2727 3.67208 17.2727 3.18099C17.2727 1.42772 15.8449 0 14.0906 0C12.0006 0 10.734 1.46661 9.99961 2.85433C9.2652 1.46661 7.99969 0 5.90977 0C4.15539 0 2.72656 1.42772 2.72656 3.18099C2.72656 3.67208 2.84878 4.13095 3.04766 4.54538H1.00107C0.448871 4.54538 0 5.19646 0 6.00088V10.3629C0 11.1662 0.448871 11.8184 1.00107 11.8184H1.81882H9.09076V4.54538H10.9096V11.8184H18.1815H18.9993C19.5515 11.8184 19.9992 11.1662 19.9992 10.3629V6.00088C19.9992 5.19646 19.5515 4.54538 18.9993 4.54538V4.54538ZM14.0906 4.54507H11.223C11.6519 3.41622 12.534 1.81851 14.0906 1.81851C14.8428 1.81851 15.455 2.42959 15.455 3.18067C15.455 3.93287 14.8428 4.54507 14.0906 4.54507V4.54507ZM5.90984 4.54507C5.15765 4.54507 4.54545 3.93287 4.54545 3.18067C4.54545 2.42959 5.15765 1.81851 5.90984 1.81851C7.46645 1.81851 8.34864 3.41622 8.77751 4.54507H5.90984Z" fill="#3681B8"/>
</svg>
